<svg id="visual" viewBox="0 0 900 450" width="900" height="450" xmlns="http://www.w3.org/2000/svg" xmlns:xlink="http://www.w3.org/1999/xlink" version="1.1"><path d="M0 37L6.5 38.5C13 40 26 43 39 42.3C52 41.7 65 37.3 78 40.3C91 43.3 104 53.7 117.2 55.2C130.3 56.7 143.7 49.3 156.8 39.7C170 30 183 18 196 14.2C209 10.3 222 14.7 235 18.3C248 22 261 25 274 25.8C287 26.7 300 25.3 313 22.3C326 19.3 339 14.7 352 13.2C365 11.7 378 13.3 391 15.7C404 18 417 21 430.2 24C443.3 27 456.7 30 469.8 30.7C483 31.3 496 29.7 509 32.7C522 35.7 535 43.3 548 44.8C561 46.3 574 41.7 587 38.7C600 35.7 613 34.3 626 30.7C639 27 652 21 665 21C678 21 691 27 704 32.2C717 37.3 730 41.7 743.2 44.7C756.3 47.7 769.7 49.3 782.8 41.7C796 34 809 17 822 14C835 11 848 22 861 23C874 24 887 15 893.5 10.5L900 6L900 0L893.5 0C887 0 874 0 861 0C848 0 835 0 822 0C809 0 796 0 782.8 0C769.7 0 756.3 0 743.2 0C730 0 717 0 704 0C691 0 678 0 665 0C652 0 639 0 626 0C613 0 600 0 587 0C574 0 561 0 548 0C535 0 522 0 509 0C496 0 483 0 469.8 0C456.7 0 443.3 0 430.2 0C417 0 404 0 391 0C378 0 365 0 352 0C339 0 326 0 313 0C300 0 287 0 274 0C261 0 248 0 235 0C222 0 209 0 196 0C183 0 170 0 156.8 0C143.7 0 130.3 0 117.2 0C104 0 91 0 78 0C65 0 52 0 39 0C26 0 13 0 6.5 0L0 0Z" fill="#2d3142"></path><path d="M0 42L6.5 43.5C13 45 26 48 39 52.5C52 57 65 63 78 66C91 69 104 69 117.2 68.2C130.3 67.3 143.7 65.7 156.8 58.8C170 52 183 40 196 35.5C209 31 222 34 235 39.3C248 44.7 261 52.3 274 53.8C287 55.3 300 50.7 313 42.3C326 34 339 22 352 17.5C365 13 378 16 391 23.5C404 31 417 43 430.2 50.5C443.3 58 456.7 61 469.8 60.3C483 59.7 496 55.3 509 57.7C522 60 535 69 548 72.7C561 76.3 574 74.7 587 71.7C600 68.7 613 64.3 626 60.7C639 57 652 54 665 50.2C678 46.3 691 41.7 704 46.2C717 50.7 730 64.3 743.2 70.3C756.3 76.3 769.7 74.7 782.8 67.2C796 59.7 809 46.3 822 44.8C835 43.3 848 53.7 861 52.8C874 52 887 40 893.5 34L900 28L900 4L893.5 8.5C887 13 874 22 861 21.3C848 20.7 835 10.3 822 13.3C809 16.3 796 32.7 782.8 40C769.7 47.3 756.3 45.7 743.2 42.7C730 39.7 717 35.3 704 30.2C691 25 678 19 665 19C652 19 639 25 626 28.7C613 32.3 600 33.7 587 36.7C574 39.7 561 44.3 548 42.8C535 41.3 522 33.7 509 30.7C496 27.7 483 29.3 469.8 28.7C456.7 28 443.3 25 430.2 22C417 19 404 16 391 13.7C378 11.3 365 9.7 352 11.2C339 12.7 326 17.3 313 20.3C300 23.3 287 24.7 274 23.8C261 23 248 20 235 16.3C222 12.7 209 8.3 196 12.2C183 16 170 28 156.8 37.7C143.7 47.3 130.3 54.7 117.2 53.2C104 51.7 91 41.3 78 38.3C65 35.3 52 39.7 39 40.3C26 41 13 38 6.5 36.5L0 35Z" fill="#353a4d"></path><path d="M0 78L6.5 78C13 78 26 78 39 80.2C52 82.3 65 86.7 78 85.2C91 83.7 104 76.3 117.2 72.7C130.3 69 143.7 69 156.8 70.5C170 72 183 75 196 76.5C209 78 222 78 235 78.7C248 79.3 261 80.7 274 76.2C287 71.7 300 61.3 313 50.2C326 39 339 27 352 21.7C365 16.3 378 17.7 391 31.8C404 46 417 73 430.2 83.5C443.3 94 456.7 88 469.8 84.3C483 80.7 496 79.3 509 80.8C522 82.3 535 86.7 548 90.3C561 94 574 97 587 94.8C600 92.7 613 85.3 626 81.7C639 78 652 78 665 78C678 78 691 78 704 80.2C717 82.3 730 86.7 743.2 91.2C756.3 95.7 769.7 100.3 782.8 92.2C796 84 809 63 822 57C835 51 848 60 861 63C874 66 887 63 893.5 61.5L900 60L900 26L893.5 32C887 38 874 50 861 50.8C848 51.7 835 41.3 822 42.8C809 44.3 796 57.7 782.8 65.2C769.7 72.7 756.3 74.3 743.2 68.3C730 62.3 717 48.7 704 44.2C691 39.7 678 44.3 665 48.2C652 52 639 55 626 58.7C613 62.3 600 66.7 587 69.7C574 72.7 561 74.3 548 70.7C535 67 522 58 509 55.7C496 53.3 483 57.7 469.8 58.3C456.7 59 443.3 56 430.2 48.5C417 41 404 29 391 21.5C378 14 365 11 352 15.5C339 20 326 32 313 40.3C300 48.7 287 53.3 274 51.8C261 50.3 248 42.7 235 37.3C222 32 209 29 196 33.5C183 38 170 50 156.8 56.8C143.7 63.7 130.3 65.3 117.2 66.2C104 67 91 67 78 64C65 61 52 55 39 50.5C26 46 13 43 6.5 41.5L0 40Z" fill="#3c4459"></path><path d="M0 100L6.5 102.3C13 104.7 26 109.3 39 109.3C52 109.3 65 104.7 78 99.3C91 94 104 88 117.2 85.8C130.3 83.7 143.7 85.3 156.8 91.3C170 97.3 183 107.7 196 112.8C209 118 222 118 235 122.5C248 127 261 136 274 126.3C287 116.7 300 88.3 313 72.7C326 57 339 54 352 57.7C365 61.3 378 71.7 391 87.3C404 103 417 124 430.2 133C443.3 142 456.7 139 469.8 134.5C483 130 496 124 509 122.5C522 121 535 124 548 127C561 130 574 133 587 132.3C600 131.7 613 127.3 626 126.7C639 126 652 129 665 123.7C678 118.3 691 104.7 704 97.8C717 91 730 91 743.2 93.3C756.3 95.7 769.7 100.3 782.8 94.3C796 88.3 809 71.7 822 74.7C835 77.7 848 100.3 861 107.2C874 114 887 105 893.5 100.5L900 96L900 58L893.5 59.5C887 61 874 64 861 61C848 58 835 49 822 55C809 61 796 82 782.8 90.2C769.7 98.3 756.3 93.7 743.2 89.2C730 84.7 717 80.3 704 78.2C691 76 678 76 665 76C652 76 639 76 626 79.7C613 83.3 600 90.7 587 92.8C574 95 561 92 548 88.3C535 84.7 522 80.3 509 78.8C496 77.3 483 78.7 469.8 82.3C456.7 86 443.3 92 430.2 81.5C417 71 404 44 391 29.8C378 15.7 365 14.3 352 19.7C339 25 326 37 313 48.2C300 59.3 287 69.7 274 74.2C261 78.7 248 77.3 235 76.7C222 76 209 76 196 74.5C183 73 170 70 156.8 68.5C143.7 67 130.3 67 117.2 70.7C104 74.3 91 81.7 78 83.2C65 84.7 52 80.3 39 78.2C26 76 13 76 6.5 76L0 76Z" fill="#444e64"></path><path d="M0 105L6.5 110.2C13 115.3 26 125.7 39 130.2C52 134.7 65 133.3 78 128.2C91 123 104 114 117.2 112.5C130.3 111 143.7 117 156.8 120.7C170 124.3 183 125.7 196 127.2C209 128.7 222 130.3 235 133.3C248 136.3 261 140.7 274 133.8C287 127 300 109 313 98.5C326 88 339 85 352 88.8C365 92.7 378 103.3 391 115.3C404 127.3 417 140.7 430.2 148.2C443.3 155.7 456.7 157.3 469.8 156.7C483 156 496 153 509 153C522 153 535 156 548 153.7C561 151.3 574 143.7 587 137.7C600 131.7 613 127.3 626 128.2C639 129 652 135 665 135.7C678 136.3 691 131.7 704 127.8C717 124 730 121 743.2 117.3C756.3 113.7 769.7 109.3 782.8 105.7C796 102 809 99 822 102.7C835 106.3 848 116.7 861 121.8C874 127 887 127 893.5 127L900 127L900 94L893.5 98.5C887 103 874 112 861 105.2C848 98.3 835 75.7 822 72.7C809 69.7 796 86.3 782.8 92.3C769.7 98.3 756.3 93.7 743.2 91.3C730 89 717 89 704 95.8C691 102.7 678 116.3 665 121.7C652 127 639 124 626 124.7C613 125.3 600 129.7 587 130.3C574 131 561 128 548 125C535 122 522 119 509 120.5C496 122 483 128 469.8 132.5C456.7 137 443.3 140 430.2 131C417 122 404 101 391 85.3C378 69.7 365 59.3 352 55.7C339 52 326 55 313 70.7C300 86.3 287 114.7 274 124.3C261 134 248 125 235 120.5C222 116 209 116 196 110.8C183 105.7 170 95.3 156.8 89.3C143.7 83.3 130.3 81.7 117.2 83.8C104 86 91 92 78 97.3C65 102.7 52 107.3 39 107.3C26 107.3 13 102.7 6.5 100.3L0 98Z" fill="#4c5970"></path><path d="M0 141L6.5 150.7C13 160.3 26 179.7 39 184.8C52 190 65 181 78 175C91 169 104 166 117.2 159.3C130.3 152.7 143.7 142.3 156.8 146.8C170 151.3 183 170.7 196 177.3C209 184 222 178 235 173.5C248 169 261 166 274 162.3C287 158.7 300 154.3 313 143.8C326 133.3 339 116.7 352 116.7C365 116.7 378 133.3 391 147.7C404 162 417 174 430.2 176.2C443.3 178.3 456.7 170.7 469.8 166.2C483 161.7 496 160.3 509 162.7C522 165 535 171 548 169.5C561 168 574 159 587 156.7C600 154.3 613 158.7 626 163.2C639 167.7 652 172.3 665 174.7C678 177 691 177 704 172.5C717 168 730 159 743.2 159C756.3 159 769.7 168 782.8 162C796 156 809 135 822 135C835 135 848 156 861 162.7C874 169.3 887 161.7 893.5 157.8L900 154L900 125L893.5 125C887 125 874 125 861 119.8C848 114.7 835 104.3 822 100.7C809 97 796 100 782.8 103.7C769.7 107.3 756.3 111.7 743.2 115.3C730 119 717 122 704 125.8C691 129.7 678 134.3 665 133.7C652 133 639 127 626 126.2C613 125.3 600 129.7 587 135.7C574 141.7 561 149.3 548 151.7C535 154 522 151 509 151C496 151 483 154 469.8 154.7C456.7 155.3 443.3 153.7 430.2 146.2C417 138.7 404 125.3 391 113.3C378 101.3 365 90.7 352 86.8C339 83 326 86 313 96.5C300 107 287 125 274 131.8C261 138.7 248 134.3 235 131.3C222 128.3 209 126.7 196 125.2C183 123.7 170 122.3 156.8 118.7C143.7 115 130.3 109 117.2 110.5C104 112 91 121 78 126.2C65 131.3 52 132.7 39 128.2C26 123.7 13 113.3 6.5 108.2L0 103Z" fill="#4f5d75"></path><path d="M0 303L6.5 291C13 279 26 255 39 256.5C52 258 65 285 78 312C91 339 104 366 117.2 348C130.3 330 143.7 267 156.8 240C170 213 183 222 196 225C209 228 222 225 235 234C248 243 261 264 274 264.7C287 265.3 300 245.7 313 224.7C326 203.7 339 181.3 352 184.3C365 187.3 378 215.7 391 235.2C404 254.7 417 265.3 430.2 262.3C443.3 259.3 456.7 242.7 469.8 234.3C483 226 496 226 509 219.3C522 212.7 535 199.3 548 217.3C561 235.3 574 284.7 587 284.7C600 284.7 613 235.3 626 224.2C639 213 652 240 665 249.7C678 259.3 691 251.7 704 254.7C717 257.7 730 271.3 743.2 273.7C756.3 276 769.7 267 782.8 249C796 231 809 204 822 209.2C835 214.3 848 251.7 861 256.8C874 262 887 235 893.5 221.5L900 208L900 152L893.5 155.8C887 159.7 874 167.3 861 160.7C848 154 835 133 822 133C809 133 796 154 782.8 160C769.7 166 756.3 157 743.2 157C730 157 717 166 704 170.5C691 175 678 175 665 172.7C652 170.3 639 165.7 626 161.2C613 156.7 600 152.3 587 154.7C574 157 561 166 548 167.5C535 169 522 163 509 160.7C496 158.3 483 159.7 469.8 164.2C456.7 168.7 443.3 176.3 430.2 174.2C417 172 404 160 391 145.7C378 131.3 365 114.7 352 114.7C339 114.7 326 131.3 313 141.8C300 152.3 287 156.7 274 160.3C261 164 248 167 235 171.5C222 176 209 182 196 175.3C183 168.7 170 149.3 156.8 144.8C143.7 140.3 130.3 150.7 117.2 157.3C104 164 91 167 78 173C65 179 52 188 39 182.8C26 177.7 13 158.3 6.5 148.7L0 139Z" fill="#4f5d75"></path><path d="M0 316L6.5 301.8C13 287.7 26 259.3 39 261.7C52 264 65 297 78 330C91 363 104 396 117.2 390C130.3 384 143.7 339 156.8 316.5C170 294 183 294 196 292.5C209 291 222 288 235 286.5C248 285 261 285 274 280.5C287 276 300 267 313 260.2C326 253.3 339 248.7 352 247.8C365 247 378 250 391 263.5C404 277 417 301 430.2 313.8C443.3 326.7 456.7 328.3 469.8 318.7C483 309 496 288 509 278.2C522 268.3 535 269.7 548 282.3C561 295 574 319 587 313C600 307 613 271 626 261.3C639 251.7 652 268.3 665 280.3C678 292.3 691 299.7 704 301.2C717 302.7 730 298.3 743.2 302.2C756.3 306 769.7 318 782.8 306C796 294 809 258 822 262.5C835 267 848 312 861 314.2C874 316.3 887 275.7 893.5 255.3L900 235L900 206L893.5 219.5C887 233 874 260 861 254.8C848 249.7 835 212.3 822 207.2C809 202 796 229 782.8 247C769.7 265 756.3 274 743.2 271.7C730 269.3 717 255.7 704 252.7C691 249.7 678 257.3 665 247.7C652 238 639 211 626 222.2C613 233.3 600 282.7 587 282.7C574 282.7 561 233.3 548 215.3C535 197.3 522 210.7 509 217.3C496 224 483 224 469.8 232.3C456.7 240.7 443.3 257.3 430.2 260.3C417 263.3 404 252.7 391 233.2C378 213.7 365 185.3 352 182.3C339 179.3 326 201.7 313 222.7C300 243.7 287 263.3 274 262.7C261 262 248 241 235 232C222 223 209 226 196 223C183 220 170 211 156.8 238C143.7 265 130.3 328 117.2 346C104 364 91 337 78 310C65 283 52 256 39 254.5C26 253 13 277 6.5 289L0 301Z" fill="#4c5970"></path><path d="M0 411L6.5 405C13 399 26 387 39 378C52 369 65 363 78 373.5C91 384 104 411 117.2 412.5C130.3 414 143.7 390 156.8 375C170 360 183 354 196 356.2C209 358.3 222 368.7 235 379.8C248 391 261 403 274 403C287 403 300 391 313 383.5C326 376 339 373 352 366.3C365 359.7 378 349.3 391 349.3C404 349.3 417 359.7 430.2 373.2C443.3 386.7 456.7 403.3 469.8 398.8C483 394.3 496 368.7 509 358.8C522 349 535 355 548 358C561 361 574 361 587 369.3C600 377.7 613 394.3 626 398.2C639 402 652 393 665 389.2C678 385.3 691 386.7 704 381.3C717 376 730 364 743.2 357.3C756.3 350.7 769.7 349.3 782.8 347.8C796 346.3 809 344.7 822 348.3C835 352 848 361 861 367.8C874 374.7 887 379.3 893.5 381.7L900 384L900 233L893.5 253.3C887 273.7 874 314.3 861 312.2C848 310 835 265 822 260.5C809 256 796 292 782.8 304C769.7 316 756.3 304 743.2 300.2C730 296.3 717 300.7 704 299.2C691 297.7 678 290.3 665 278.3C652 266.3 639 249.7 626 259.3C613 269 600 305 587 311C574 317 561 293 548 280.3C535 267.7 522 266.3 509 276.2C496 286 483 307 469.8 316.7C456.7 326.3 443.3 324.7 430.2 311.8C417 299 404 275 391 261.5C378 248 365 245 352 245.8C339 246.7 326 251.3 313 258.2C300 265 287 274 274 278.5C261 283 248 283 235 284.5C222 286 209 289 196 290.5C183 292 170 292 156.8 314.5C143.7 337 130.3 382 117.2 388C104 394 91 361 78 328C65 295 52 262 39 259.7C26 257.3 13 285.7 6.5 299.8L0 314Z" fill="#444e64"></path><path d="M0 415L6.5 412.8C13 410.7 26 406.3 39 402.7C52 399 65 396 78 402C91 408 104 423 117.2 420C130.3 417 143.7 396 156.8 384C170 372 183 369 196 375.7C209 382.3 222 398.7 235 408.3C248 418 261 421 274 421C287 421 300 418 313 410.5C326 403 339 391 352 381.3C365 371.7 378 364.3 391 368.2C404 372 417 387 430.2 397.5C443.3 408 456.7 414 469.8 408C483 402 496 384 509 378C522 372 535 378 548 379.5C561 381 574 378 587 384C600 390 613 405 626 411.7C639 418.3 652 416.7 665 416.7C678 416.7 691 418.3 704 410.8C717 403.3 730 386.7 743.2 376.8C756.3 367 769.7 364 782.8 361.8C796 359.7 809 358.3 822 364.3C835 370.3 848 383.7 861 390.3C874 397 887 397 893.5 397L900 397L900 382L893.5 379.7C887 377.3 874 372.7 861 365.8C848 359 835 350 822 346.3C809 342.7 796 344.3 782.8 345.8C769.7 347.3 756.3 348.7 743.2 355.3C730 362 717 374 704 379.3C691 384.7 678 383.3 665 387.2C652 391 639 400 626 396.2C613 392.3 600 375.7 587 367.3C574 359 561 359 548 356C535 353 522 347 509 356.8C496 366.7 483 392.3 469.8 396.8C456.7 401.3 443.3 384.7 430.2 371.2C417 357.7 404 347.3 391 347.3C378 347.3 365 357.7 352 364.3C339 371 326 374 313 381.5C300 389 287 401 274 401C261 401 248 389 235 377.8C222 366.7 209 356.3 196 354.2C183 352 170 358 156.8 373C143.7 388 130.3 412 117.2 410.5C104 409 91 382 78 371.5C65 361 52 367 39 376C26 385 13 397 6.5 403L0 409Z" fill="#3c4459"></path><path d="M0 438L6.5 435C13 432 26 426 39 418.5C52 411 65 402 78 405.7C91 409.3 104 425.7 117.2 428.7C130.3 431.7 143.7 421.3 156.8 410.8C170 400.3 183 389.7 196 393.3C209 397 222 415 235 425.5C248 436 261 439 274 442C287 445 300 448 313 439.8C326 431.7 339 412.3 352 403.3C365 394.3 378 395.7 391 400.2C404 404.7 417 412.3 430.2 419.8C443.3 427.3 456.7 434.7 469.8 430.2C483 425.7 496 409.3 509 403.3C522 397.3 535 401.7 548 403.8C561 406 574 406 587 409.8C600 413.7 613 421.3 626 426.7C639 432 652 435 665 438.7C678 442.3 691 446.7 704 440.7C717 434.7 730 418.3 743.2 406.3C756.3 394.3 769.7 386.7 782.8 385.2C796 383.7 809 388.3 822 395.2C835 402 848 411 861 417.7C874 424.3 887 428.7 893.5 430.8L900 433L900 395L893.5 395C887 395 874 395 861 388.3C848 381.7 835 368.3 822 362.3C809 356.3 796 357.7 782.8 359.8C769.7 362 756.3 365 743.2 374.8C730 384.7 717 401.3 704 408.8C691 416.3 678 414.7 665 414.7C652 414.7 639 416.3 626 409.7C613 403 600 388 587 382C574 376 561 379 548 377.5C535 376 522 370 509 376C496 382 483 400 469.8 406C456.7 412 443.3 406 430.2 395.5C417 385 404 370 391 366.2C378 362.3 365 369.7 352 379.3C339 389 326 401 313 408.5C300 416 287 419 274 419C261 419 248 416 235 406.3C222 396.7 209 380.3 196 373.7C183 367 170 370 156.8 382C143.7 394 130.3 415 117.2 418C104 421 91 406 78 400C65 394 52 397 39 400.7C26 404.3 13 408.7 6.5 410.8L0 413Z" fill="#353a4d"></path><path d="M0 451L6.5 451C13 451 26 451 39 451C52 451 65 451 78 451C91 451 104 451 117.2 451C130.3 451 143.7 451 156.8 451C170 451 183 451 196 451C209 451 222 451 235 451C248 451 261 451 274 451C287 451 300 451 313 451C326 451 339 451 352 451C365 451 378 451 391 451C404 451 417 451 430.2 451C443.3 451 456.7 451 469.8 451C483 451 496 451 509 451C522 451 535 451 548 451C561 451 574 451 587 451C600 451 613 451 626 451C639 451 652 451 665 451C678 451 691 451 704 451C717 451 730 451 743.2 451C756.3 451 769.7 451 782.8 451C796 451 809 451 822 451C835 451 848 451 861 451C874 451 887 451 893.5 451L900 451L900 431L893.5 428.8C887 426.7 874 422.3 861 415.7C848 409 835 400 822 393.2C809 386.3 796 381.7 782.8 383.2C769.7 384.7 756.3 392.3 743.2 404.3C730 416.3 717 432.7 704 438.7C691 444.7 678 440.3 665 436.7C652 433 639 430 626 424.7C613 419.3 600 411.7 587 407.8C574 404 561 404 548 401.8C535 399.7 522 395.3 509 401.3C496 407.3 483 423.7 469.8 428.2C456.7 432.7 443.3 425.3 430.2 417.8C417 410.3 404 402.7 391 398.2C378 393.7 365 392.3 352 401.3C339 410.3 326 429.7 313 437.8C300 446 287 443 274 440C261 437 248 434 235 423.5C222 413 209 395 196 391.3C183 387.7 170 398.3 156.8 408.8C143.7 419.3 130.3 429.7 117.2 426.7C104 423.7 91 407.3 78 403.7C65 400 52 409 39 416.5C26 424 13 430 6.5 433L0 436Z" fill="#2d3142"></path></svg>